<?xml version="1.0" standalone="no"?>
<!DOCTYPE svg PUBLIC "-//W3C//DTD SVG 20010904//EN"
 "http://www.w3.org/TR/2001/REC-SVG-20010904/DTD/svg10.dtd">
<svg version="1.0" xmlns="http://www.w3.org/2000/svg"
 width="700.000000pt" height="700.000000pt" viewBox="0 0 700.000000 700.000000"
 preserveAspectRatio="xMidYMid meet">
<metadata>
Created by potrace 1.11, written by Peter Selinger 2001-2013
</metadata>
<g transform="translate(0.000000,700.000000) scale(0.100000,-0.100000)"
fill="#000000" stroke="none">
<path d="M600 6984 c-75 -16 -182 -57 -221 -85 -15 -10 -32 -19 -38 -19 -6 0
-11 -4 -11 -8 0 -4 -13 -15 -28 -24 -46 -28 -133 -119 -177 -188 -50 -78 -70
-121 -99 -209 l-21 -66 -2 -2855 c-1 -1793 1 -2874 7 -2905 60 -309 280 -538
586 -609 62 -14 341 -15 2934 -13 2759 2 2867 3 2920 21 282 94 471 295 530
563 19 86 20 148 17 2933 -1 1565 -6 2861 -11 2880 -22 93 -71 205 -126 284
-68 99 -215 217 -323 258 -146 57 103 52 -3012 55 -2426 1 -2870 -1 -2925 -13z
m3360 -868 c236 -26 443 -84 648 -181 97 -47 287 -156 302 -174 3 -3 30 -25
60 -47 169 -127 347 -323 471 -519 146 -232 256 -538 284 -790 4 -33 9 -73 11
-90 5 -40 5 -283 0 -315 -2 -14 -7 -52 -10 -85 -9 -82 -13 -104 -43 -225 -65
-262 -178 -499 -343 -720 -80 -106 -269 -297 -375 -376 -150 -114 -344 -222
-494 -275 -31 -11 -65 -24 -76 -29 -53 -24 -277 -75 -366 -85 -30 -3 -72 -8
-94 -10 -22 -2 -289 -5 -592 -6 l-553 -1 -1 -502 c0 -275 -2 -515 -4 -532 -5
-44 -50 -135 -85 -172 -37 -40 -93 -75 -145 -92 -56 -19 -755 -21 -827 -3
-134 35 -229 141 -246 275 -4 29 -7 1095 -6 2368 0 2188 1 2318 18 2368 36
105 131 192 237 216 55 13 2119 14 2229 2z"/>
<path d="M3567 4974 c-1 -2 -26 -5 -56 -8 -50 -5 -100 -17 -146 -35 -82 -33
-138 -63 -199 -104 -136 -94 -127 -92 -341 -93 -332 -3 -400 -35 -582 -267
-129 -166 -214 -271 -227 -282 -17 -15 -137 -168 -134 -170 3 -3 69 -12 153
-20 270 -27 408 -66 610 -171 100 -52 141 -78 288 -184 337 -244 405 -279 571
-297 226 -23 394 16 576 137 136 91 144 93 375 95 204 2 238 7 318 47 62 31
173 150 338 361 246 318 239 306 192 308 -16 0 -37 2 -48 4 -11 2 -51 8 -90
14 -38 5 -81 12 -95 15 -14 3 -50 11 -80 17 -287 58 -448 135 -765 369 -71 52
-148 107 -170 122 -65 44 -207 106 -278 123 -58 13 -202 26 -210 19z"/>
</g>
</svg>
